<svg xmlns="http://www.w3.org/2000/svg" preserveAspectRatio="xMidYMid meet" focusable="false" viewBox="0 0 16 16"><path d="M11.4,9.1c0,2.5-2,3.9-3.6,5.5C7,15.5,5.8,16,4.6,16C2,16,0,14,0,11.4c0-2.1,1.2-3.1,2.6-4.5l1.6,1.6 c-0.8,0.8-2,1.6-2,2.9c0,1.3,1,2.3,2.3,2.3c0.6,0,1.2-0.2,1.6-0.7l2.3-2.3c0.4-0.4,0.7-1,0.7-1.6c0-0.9-0.5-1.7-1.3-2.1l1-2.1 C10.4,5.7,11.4,7.4,11.4,9.1z M16,4.6c0,2.1-1.2,3.1-2.6,4.5l-1.6-1.6c0.8-0.8,2-1.6,2-2.9c0-1.3-1-2.3-2.3-2.3 c-0.6,0-1.2,0.2-1.6,0.7L7.5,5.2c-0.4,0.4-0.7,1-0.7,1.6c0,0.9,0.5,1.7,1.3,2.1l-1,2.1c-1.6-0.7-2.7-2.4-2.7-4.2 c0-1.2,0.5-2.4,1.3-3.2C7.6,2,8.9,0,11.4,0C14,0,16,2,16,4.6z" /></svg>