<svg xmlns="http://www.w3.org/2000/svg" preserveAspectRatio="xMidYMid meet" focusable="false" viewBox="0 0 16 16"><path d="M15,3.7c-0.4,0.6-0.9,1.1-1.4,1.5c0,0.1,0,0.2,0,0.4c0,0.8-0.1,1.5-0.3,2.3 c-0.2,0.8-0.6,1.5-1,2.2c-0.5,0.7-1,1.3-1.6,1.9c-0.6,0.5-1.4,1-2.3,1.3c-0.9,0.3-1.8,0.5-2.9,0.5c-1.6,0-3.1-0.4-4.4-1.3 c0.2,0,0.4,0,0.7,0c1.3,0,2.5-0.4,3.6-1.2c-0.6,0-1.2-0.2-1.7-0.6c-0.5-0.4-0.8-0.8-1-1.4c0.2,0,0.4,0,0.5,0c0.3,0,0.5,0,0.8-0.1 C3.2,9,2.7,8.7,2.2,8.2C1.8,7.6,1.6,7,1.6,6.4v0C2,6.5,2.4,6.7,2.9,6.7c-0.4-0.3-0.7-0.6-0.9-1C1.7,5.2,1.6,4.8,1.6,4.3 c0-0.5,0.1-1,0.4-1.4C2.7,3.7,3.6,4.4,4.6,5s2.1,0.8,3.3,0.9c0-0.2-0.1-0.4-0.1-0.7c0-0.8,0.3-1.5,0.8-2c0.6-0.6,1.2-0.8,2-0.8 c0.8,0,1.5,0.3,2.1,0.9c0.6-0.1,1.3-0.4,1.8-0.7c-0.2,0.7-0.6,1.2-1.3,1.6C13.9,4.1,14.4,3.9,15,3.7z"/></svg>