<svg xmlns="http://www.w3.org/2000/svg" viewBox="0 0 16 16">
<g>
<path d="M 16 11.199219 L 15.332031 16 L 0.667969 16 L 0 11.199219 L 3.867188 9.667969 C 2.867188 8.601562 2.265625 7.199219 2.265625 5.734375 C 2.265625 2.601562 4.867188 0 8 0 C 11.132812 0 13.734375 2.601562 13.734375 5.734375 C 13.734375 7.199219 13.132812 8.601562 12.132812 9.667969 Z M 13.601562 12.667969 L 9.464844 11.066406 L 9.464844 8.867188 C 10.667969 8.066406 11.464844 7.199219 11.464844 5.667969 C 11.464844 3.800781 9.933594 2.265625 8.066406 2.265625 C 6.199219 2.265625 4.667969 3.800781 4.667969 5.667969 C 4.667969 7.199219 5.464844 8.066406 6.667969 8.867188 L 6.667969 11.066406 L 2.398438 12.667969 L 2.601562 13.734375 L 13.398438 13.734375 Z M 13.601562 12.667969 "/>
</g>
</svg>
