<?xml version="1.0" standalone="no"?>
<!DOCTYPE svg PUBLIC "-//W3C//DTD SVG 20010904//EN"
 "http://www.w3.org/TR/2001/REC-SVG-20010904/DTD/svg10.dtd">
<svg version="1.0" xmlns="http://www.w3.org/2000/svg"
 width="1280.000000pt" height="1280.000000pt" viewBox="0 0 1280.000000 1280.000000"
 preserveAspectRatio="xMidYMid meet">
<metadata>
Created by potrace 1.11, written by Peter Selinger 2001-2013
</metadata>
<g transform="translate(0.000000,1280.000000) scale(0.100000,-0.100000)"
fill="#000000" stroke="none">
<path d="M0 8635 l0 -2565 6400 0 6400 0 0 2565 0 2565 -6400 0 -6400 0 0
-2565z m11560 2115 c166 -16 381 -48 485 -72 126 -29 255 -77 255 -94 0 -13
-259 -815 -265 -822 -2 -2 -48 14 -102 36 -276 110 -595 162 -923 148 -491
-20 -684 -131 -684 -391 0 -194 120 -290 599 -480 424 -168 649 -307 796 -493
156 -196 227 -433 216 -717 -13 -299 -90 -534 -243 -738 -216 -288 -571 -483
-1060 -582 -252 -51 -355 -59 -709 -59 -288 -1 -350 2 -486 22 -263 37 -673
126 -793 172 l-24 9 23 78 c36 122 225 747 229 759 3 8 39 -5 99 -35 146 -74
336 -128 592 -168 157 -25 552 -25 680 0 353 70 516 204 532 435 10 143 -39
246 -163 340 -98 74 -184 116 -474 232 -140 56 -313 132 -384 168 -278 141
-450 312 -528 526 -44 120 -58 210 -58 370 0 514 230 903 670 1129 264 137
524 203 940 241 83 7 664 -3 780 -14z m-8845 -290 c68 -229 166 -561 321
-1085 36 -121 101 -339 144 -485 43 -146 120 -404 170 -575 150 -508 142 -482
151 -460 7 18 41 180 244 1165 37 179 104 505 150 725 46 220 109 524 140 675
31 151 59 278 62 283 2 4 235 7 518 7 283 0 516 -3 518 -7 2 -5 -11 -80 -30
-168 -34 -161 -115 -541 -243 -1145 -114 -538 -257 -1208 -320 -1505 -144
-676 -192 -902 -230 -1084 -22 -107 -43 -205 -46 -218 l-6 -23 -691 2 -691 3
-57 185 c-31 102 -92 298 -134 435 -42 138 -112 365 -155 505 -43 140 -142
462 -220 715 -343 1119 -306 1004 -313 985 -4 -8 -45 -204 -92 -435 -88 -427
-147 -715 -300 -1455 -47 -228 -108 -525 -136 -660 -27 -135 -52 -253 -55
-262 -5 -17 -39 -18 -525 -18 -430 0 -519 2 -519 14 0 7 32 161 70 342 112
523 183 857 285 1339 52 248 122 576 155 730 33 154 103 483 155 730 166 782
206 970 210 983 4 10 149 12 701 10 l696 -3 73 -245z m3955 235 c0 -8 -20
-110 -45 -227 -84 -395 -206 -972 -246 -1157 -21 -101 -39 -186 -39 -188 0 -7
1299 -3 1304 5 2 4 25 106 51 227 26 121 75 355 110 520 36 165 87 410 116
544 28 134 55 255 60 268 l9 23 553 0 c305 0 556 -2 559 -5 3 -3 -6 -56 -19
-118 -14 -62 -58 -272 -98 -467 -41 -195 -108 -519 -150 -720 -42 -201 -110
-526 -151 -722 -41 -197 -108 -519 -149 -715 -41 -197 -108 -520 -149 -718
-41 -198 -90 -432 -109 -520 l-34 -160 -561 -3 c-358 -1 -562 1 -562 8 0 5 27
139 61 297 33 158 89 428 124 598 35 171 89 431 119 580 31 148 56 273 56 277
0 5 -294 7 -652 6 l-652 -3 -33 -160 c-70 -341 -319 -1543 -328 -1582 l-5 -23
-560 0 c-351 0 -560 4 -560 10 0 9 46 234 184 895 73 353 151 727 300 1443 41
196 109 519 150 717 41 198 106 511 145 695 38 184 72 347 76 363 l7 27 559 0
c483 0 559 -2 559 -15z"/>
<path d="M0 3761 l0 -1281 418 0 c457 0 596 8 778 46 296 60 503 163 665 331
121 125 186 234 243 405 95 284 95 711 0 998 -123 372 -401 615 -818 716 -215
51 -279 56 -798 61 l-488 5 0 -1281z m1010 854 c137 -37 278 -115 379 -210
244 -230 326 -635 198 -988 -56 -152 -198 -328 -329 -405 -174 -103 -300 -132
-569 -132 l-179 0 0 881 0 881 218 -5 c164 -3 233 -8 282 -22z"/>
<path d="M2540 4825 l0 -215 250 0 250 0 0 215 0 215 -250 0 -250 0 0 -215z"/>
<path d="M5630 4825 l0 -215 250 0 250 0 0 215 0 215 -250 0 -250 0 0 -215z"/>
<path d="M10160 3760 l0 -1280 248 2 247 3 0 1275 0 1275 -247 3 -248 2 0
-1280z"/>
<path d="M7070 4831 l-235 -77 -3 -217 -2 -217 -185 0 -185 0 0 -175 0 -175
185 0 185 0 0 -474 c0 -591 10 -673 97 -805 148 -225 422 -293 831 -205 l33 7
-7 186 c-3 102 -8 187 -9 189 -2 2 -29 -5 -61 -14 -33 -10 -96 -17 -144 -18
-98 -1 -148 20 -189 80 -48 70 -51 105 -51 601 l0 463 213 2 212 3 3 178 2
177 -215 0 -215 0 0 285 c0 222 -3 285 -12 284 -7 -1 -119 -36 -248 -78z"/>
<path d="M8795 4443 c-190 -22 -322 -52 -456 -104 l-79 -30 0 -205 c0 -112 3
-204 6 -204 3 0 24 13 47 29 177 121 404 180 623 161 132 -11 188 -32 249 -94
57 -57 80 -115 91 -227 l6 -66 -238 -6 c-415 -11 -608 -57 -767 -183 -185
-147 -264 -463 -176 -700 44 -117 147 -222 284 -289 116 -56 182 -70 335 -69
119 0 144 3 215 27 44 15 109 44 143 65 67 40 163 128 190 175 9 15 20 27 24
27 4 0 8 -44 8 -97 0 -54 3 -115 6 -136 l7 -37 211 0 212 0 -3 593 c-3 627
-11 791 -44 909 -63 225 -211 369 -441 427 -130 33 -334 49 -453 34z m485
-1100 c-1 -76 -26 -198 -54 -259 -36 -78 -77 -126 -147 -173 -82 -55 -154 -75
-264 -74 -190 2 -286 80 -285 234 1 143 68 228 220 279 90 30 154 37 353 39
l177 1 0 -47z"/>
<path d="M4035 4356 c-333 -64 -574 -346 -641 -752 -21 -132 -14 -408 14 -540
69 -320 248 -530 517 -605 105 -30 307 -32 405 -6 143 38 292 130 361 221 19
25 38 46 42 46 11 0 -1 -169 -19 -265 -41 -217 -165 -346 -376 -389 -182 -37
-387 -5 -636 101 -46 19 -84 34 -86 32 -6 -9 -48 -401 -43 -406 13 -12 217
-74 307 -93 219 -45 515 -43 705 4 348 88 547 308 612 676 15 84 17 199 18
1025 l0 930 -95 -3 c-52 -1 -157 -5 -232 -8 l-137 -6 -3 -121 -3 -121 -26 40
c-72 109 -217 206 -349 234 -87 18 -256 21 -335 6z m389 -376 c127 -40 229
-168 273 -345 24 -99 25 -354 0 -445 -56 -209 -173 -325 -356 -352 -209 -31
-367 86 -447 329 -27 83 -29 97 -29 258 1 157 3 176 28 251 30 91 87 186 137
227 107 90 256 119 394 77z"/>
<path d="M2547 4333 c-4 -3 -7 -422 -7 -930 l0 -923 250 0 250 0 0 930 0 930
-243 0 c-134 0 -247 -3 -250 -7z"/>
<path d="M5637 4334 c-4 -4 -7 -423 -7 -931 l0 -923 250 0 250 0 -2 928 -3
927 -241 3 c-132 1 -243 -1 -247 -4z"/>
</g>
</svg>
