<svg xmlns="http://www.w3.org/2000/svg" viewBox="0 0 300 300" preserveAspectRatio="xMidYMid meet" aria-hidden="true" focusable="false"><g><g transform="translate(61, 78)"><polygon points="0,20.5 35.5,0 71,20.5 35.5,41" fill="#BFD7ED"></polygon><polygon points="35.5,82 71,61.4 71,20.5 35.5,41" fill="#B2CFEA"></polygon><polygon points="0,20.5 0,61.4 35.5,82 35.5,41" fill="#A6C7E6"></polygon></g><g transform="translate(167.5, 139.5)"><polygon points="0,20.5 35.5,0 71,20.5 35.5,41" fill="#191718"></polygon><polygon points="35.5,82 71,61.4 71,20.5 35.5,41" fill="#0C0C0C"></polygon><polygon points="0,20.5 0,61.4 35.5,82 35.5,41" fill="#000305"></polygon></g><g transform="translate(96.5, 139.5)"><polygon points="0,20.5 35.5,0 71,20.5 35.5,41" fill="#FBFAFA"></polygon><polygon points="35.5,82 71,61.4 71,20.5 35.5,41" fill="#F5F5F4"></polygon><polygon points="0,20.5 0,61.4 35.5,82 35.5,41" fill="#EFF2F1"></polygon></g><g transform="translate(203, 201)"><polygon points="0,20.5 35.5,0 71,20.5 35.5,41" fill="#DADFDF"></polygon><polygon points="35.5,82 71,61.4 71,20.5 35.5,41" fill="#CDD5D6"></polygon><polygon points="0,20.5 0,61.4 35.5,82 35.5,41" fill="#C5CDCF"></polygon></g><g transform="translate(25.5, 139.5)"><polygon points="0,20.5 35.5,0 71,20.5 35.5,41" fill="#3C4D57"></polygon><polygon points="35.5,82 71,61.4 71,20.5 35.5,41" fill="#32434C"></polygon><polygon points="0,20.5 0,61.4 35.5,82 35.5,41" fill="#313D45"></polygon></g><g transform="translate(132, 201)"><polygon points="0,20.5 35.5,0 71,20.5 35.5,41" fill="#F5D507"></polygon><polygon points="35.5,82 71,61.4 71,20.5 35.5,41" fill="#F2CB0C"></polygon><polygon points="0,20.5 0,61.4 35.5,82 35.5,41" fill="#EEC000"></polygon></g></g><g><g transform="translate(167.5, 98.5)"><polygon points="0,20.5 35.5,0 71,20.5 35.5,41" fill="#6D7B86"></polygon><polygon points="35.5,82 71,61.4 71,20.5 35.5,41" fill="#62717A"></polygon><polygon points="0,20.5 0,61.4 35.5,82 35.5,41" fill="#5C6B75"></polygon></g><g transform="translate(61, 119)"><polygon points="0,20.5 35.5,0 71,20.5 35.5,41" fill="#DADFDF"></polygon><polygon points="35.5,82 71,61.4 71,20.5 35.5,41" fill="#CDD5D6"></polygon><polygon points="0,20.5 0,61.4 35.5,82 35.5,41" fill="#C5CDCF"></polygon></g><g transform="translate(96.5, 139.5)"><polygon points="0,20.5 35.5,0 71,20.5 35.5,41" fill="#6D7B86"></polygon><polygon points="35.5,82 71,61.4 71,20.5 35.5,41" fill="#62717A"></polygon><polygon points="0,20.5 0,61.4 35.5,82 35.5,41" fill="#5C6B75"></polygon></g></g><g><g transform="translate(96.5, 16.5)"><polygon points="0,20.5 35.5,0 71,20.5 35.5,41" fill="#BFD7ED"></polygon><polygon points="35.5,82 71,61.4 71,20.5 35.5,41" fill="#B2CFEA"></polygon><polygon points="0,20.5 0,61.4 35.5,82 35.5,41" fill="#A6C7E6"></polygon></g><g transform="translate(203, 78)"><polygon points="0,20.5 35.5,0 71,20.5 35.5,41" fill="#3C4D57"></polygon><polygon points="35.5,82 71,61.4 71,20.5 35.5,41" fill="#32434C"></polygon><polygon points="0,20.5 0,61.4 35.5,82 35.5,41" fill="#313D45"></polygon></g><g transform="translate(96.5, 57.5)"><polygon points="0,20.5 35.5,0 71,20.5 35.5,41" fill="#00267A"></polygon><polygon points="35.5,82 71,61.4 71,20.5 35.5,41" fill="#001F75"></polygon><polygon points="0,20.5 0,61.4 35.5,82 35.5,41" fill="#001766"></polygon></g><g transform="translate(132, 78)"><polygon points="0,20.5 35.5,0 71,20.5 35.5,41" fill="#DADFDF"></polygon><polygon points="35.5,82 71,61.4 71,20.5 35.5,41" fill="#CDD5D6"></polygon><polygon points="0,20.5 0,61.4 35.5,82 35.5,41" fill="#C5CDCF"></polygon></g><g transform="translate(167.5, 139.5)"><polygon points="0,20.5 35.5,0 71,20.5 35.5,41" fill="#FBFAFA"></polygon><polygon points="35.5,82 71,61.4 71,20.5 35.5,41" fill="#F5F5F4"></polygon><polygon points="0,20.5 0,61.4 35.5,82 35.5,41" fill="#EFF2F1"></polygon></g></g></svg>